<svg width="98" height="29" viewBox="0 0 98 29" fill="none" xmlns="http://www.w3.org/2000/svg">
<path d="M0.876421 28V1.81818H17.1122V5.21875H4.8267V13.196H15.9489V16.5838H4.8267V28H0.876421ZM17.507 28L20.7797 8.36364H24.6022L21.3294 28H17.507ZM23.4899 5.29545C22.8252 5.29545 22.2627 5.07386 21.8024 4.63068C21.3507 4.17898 21.1419 3.64205 21.176 3.01989C21.2101 2.3892 21.4743 1.85227 21.9686 1.40909C22.463 0.957385 23.0382 0.731532 23.6945 0.731532C24.3593 0.731532 24.9175 0.957385 25.3692 1.40909C25.8209 1.85227 26.034 2.3892 26.0084 3.01989C25.9743 3.64205 25.7101 4.17898 25.2158 4.63068C24.73 5.07386 24.1547 5.29545 23.4899 5.29545ZM29.4106 16.3409V28H25.5882V8.36364H29.2572V11.5597H29.5001C29.9518 10.5199 30.6592 9.68466 31.6223 9.05398C32.5939 8.4233 33.8169 8.10795 35.2913 8.10795C36.6294 8.10795 37.8013 8.3892 38.8069 8.9517C39.8126 9.50568 40.5925 10.3324 41.1464 11.4318C41.7004 12.5312 41.9774 13.8906 41.9774 15.5099V28H38.155V15.9702C38.155 14.5469 37.7842 13.4347 37.0427 12.6335C36.3013 11.8239 35.2828 11.419 33.9873 11.419C33.101 11.419 32.3126 11.6108 31.6223 11.9943C30.9405 12.3778 30.3993 12.9403 29.9987 13.6818C29.6067 14.4148 29.4106 15.3011 29.4106 16.3409ZM50.2983 28.4347C49.054 28.4347 47.929 28.2045 46.9233 27.7443C45.9176 27.2756 45.1208 26.598 44.5327 25.7116C43.9531 24.8253 43.6634 23.7386 43.6634 22.4517C43.6634 21.3437 43.8764 20.4318 44.3026 19.7159C44.7287 19 45.304 18.4332 46.0284 18.0156C46.7529 17.598 47.5625 17.2827 48.4574 17.0696C49.3523 16.8565 50.2642 16.6946 51.1932 16.5838C52.3693 16.4474 53.3239 16.3366 54.0568 16.2514C54.7898 16.1577 55.3225 16.0085 55.6548 15.804C55.9872 15.5994 56.1534 15.267 56.1534 14.8068V14.7173C56.1534 13.6009 55.8381 12.7358 55.2074 12.1222C54.5852 11.5085 53.6563 11.2017 52.4205 11.2017C51.1335 11.2017 50.1193 11.4872 49.3779 12.0582C48.6449 12.6207 48.1378 13.2472 47.8565 13.9375L44.2642 13.1193C44.6904 11.9261 45.3125 10.9631 46.1307 10.2301C46.9574 9.48864 47.9077 8.9517 48.9815 8.61932C50.0554 8.27841 51.1847 8.10795 52.3693 8.10795C53.1534 8.10795 53.9844 8.2017 54.8622 8.3892C55.7486 8.56818 56.5753 8.90057 57.3423 9.38636C58.1179 9.87216 58.7529 10.5668 59.2472 11.4702C59.7415 12.3651 59.9886 13.5284 59.9886 14.9602V28H56.2557V25.3153H56.1023C55.8551 25.8097 55.4844 26.2955 54.9901 26.7727C54.4958 27.25 53.8608 27.6463 53.0852 27.9616C52.3097 28.277 51.3807 28.4347 50.2983 28.4347ZM51.1293 25.3665C52.1861 25.3665 53.0895 25.1577 53.8395 24.7401C54.598 24.3224 55.1733 23.777 55.5654 23.1037C55.9659 22.4219 56.1662 21.6932 56.1662 20.9176V18.3864C56.0298 18.5227 55.7656 18.6506 55.3736 18.7699C54.9901 18.8807 54.5511 18.9787 54.0568 19.0639C53.5625 19.1406 53.081 19.2131 52.6122 19.2812C52.1435 19.3409 51.7514 19.392 51.4361 19.4347C50.6946 19.5284 50.0171 19.6861 49.4034 19.9077C48.7983 20.1293 48.3125 20.4489 47.946 20.8665C47.5881 21.2756 47.4091 21.821 47.4091 22.5028C47.4091 23.4489 47.7585 24.1648 48.4574 24.6506C49.1563 25.1278 50.0469 25.3665 51.1293 25.3665ZM71.9051 8.36364V11.4318H60.8085V8.36364H71.9051ZM63.8511 28V6.08807C63.8511 4.86079 64.1196 3.84233 64.6565 3.03267C65.1934 2.21449 65.9051 1.60511 66.7914 1.20455C67.6778 0.795453 68.6409 0.590907 69.6807 0.590907C70.4477 0.590907 71.1039 0.654828 71.6494 0.78267C72.1949 0.901988 72.5997 1.01278 72.8639 1.11506L71.969 4.20881C71.79 4.15767 71.5599 4.09801 71.2787 4.02983C70.9974 3.95312 70.6565 3.91477 70.2559 3.91477C69.327 3.91477 68.6622 4.14489 68.2616 4.60511C67.8696 5.06534 67.6735 5.73011 67.6735 6.59943V28H63.8511ZM77.1514 1.81818V28H73.329V1.81818H77.1514ZM88.0451 28.3963C86.2042 28.3963 84.5977 27.9744 83.2255 27.1307C81.8534 26.2869 80.788 25.1065 80.0295 23.5895C79.271 22.0724 78.8917 20.2997 78.8917 18.2713C78.8917 16.2344 79.271 14.4531 80.0295 12.9276C80.788 11.402 81.8534 10.2173 83.2255 9.37358C84.5977 8.52983 86.2042 8.10795 88.0451 8.10795C89.886 8.10795 91.4926 8.52983 92.8647 9.37358C94.2369 10.2173 95.3022 11.402 96.0608 12.9276C96.8193 14.4531 97.1985 16.2344 97.1985 18.2713C97.1985 20.2997 96.8193 22.0724 96.0608 23.5895C95.3022 25.1065 94.2369 26.2869 92.8647 27.1307C91.4926 27.9744 89.886 28.3963 88.0451 28.3963ZM88.0579 25.1875C89.2511 25.1875 90.2397 24.8722 91.0238 24.2415C91.8079 23.6108 92.3875 22.7713 92.7625 21.723C93.146 20.6747 93.3377 19.5199 93.3377 18.2585C93.3377 17.0057 93.146 15.8551 92.7625 14.8068C92.3875 13.75 91.8079 12.902 91.0238 12.2628C90.2397 11.6236 89.2511 11.304 88.0579 11.304C86.8562 11.304 85.859 11.6236 85.0664 12.2628C84.2823 12.902 83.6985 13.75 83.315 14.8068C82.94 15.8551 82.7525 17.0057 82.7525 18.2585C82.7525 19.5199 82.94 20.6747 83.315 21.723C83.6985 22.7713 84.2823 23.6108 85.0664 24.2415C85.859 24.8722 86.8562 25.1875 88.0579 25.1875Z" fill="white"/>
</svg>
